PathFileType	4	(X/Y/Z)	C:\Git\powerlifing_model_clean\simulations\Test1\Session1\HC835B_STD_0001\marker_experimental.trc
DataRate	CameraRate	NumFrames	NumMarkers	Units	OrigDataRate	OrigDataStartFrame	OrigNumFrames
240.000000	240.000000	4	54	mm	240.000000	168	337
Frame#	Time	RPSI			LPSI			RASI			LASI			RGT			RTH1			RTH2			RTH3			RTH4			RLK			RMK			RSK1			RSK2			RSK3			RSK4			RLA			RMA			RCAL1			RCAL2			RCAL3			RST			RPT			RTN			RFMB			RSMB			RVMB			RFMH			RSMH			RVMH			RPM			LGT			LTH1			LTH2			LTH3			LTH4			LLK			LMK			LSK1			LSK2			LSK3			LSK4			LLA			LMA			LCAL1			LCAL2			LCAL3			LFMH			LVMH			RHJC			LHJC			RKJC			LKJC			RAJC			LAJC
		X1	Y1	Z1	X2	Y2	Z2	X3	Y3	Z3	X4	Y4	Z4	X5	Y5	Z5	X6	Y6	Z6	X7	Y7	Z7	X8	Y8	Z8	X9	Y9	Z9	X10	Y10	Z10	X11	Y11	Z11	X12	Y12	Z12	X13	Y13	Z13	X14	Y14	Z14	X15	Y15	Z15	X16	Y16	Z16	X17	Y17	Z17	X18	Y18	Z18	X19	Y19	Z19	X20	Y20	Z20	X21	Y21	Z21	X22	Y22	Z22	X23	Y23	Z23	X24	Y24	Z24	X25	Y25	Z25	X26	Y26	Z26	X27	Y27	Z27	X28	Y28	Z28	X29	Y29	Z29	X30	Y30	Z30	X31	Y31	Z31	X32	Y32	Z32	X33	Y33	Z33	X34	Y34	Z34	X35	Y35	Z35	X36	Y36	Z36	X37	Y37	Z37	X38	Y38	Z38	X39	Y39	Z39	X40	Y40	Z40	X41	Y41	Z41	X42	Y42	Z42	X43	Y43	Z43	X44	Y44	Z44	X45	Y45	Z45	X46	Y46	Z46	X47	Y47	Z47	X48	Y48	Z48	X49	Y49	Z49	X50	Y50	Z50	X51	Y51	Z51	X52	Y52	Z52	X53	Y53	Z53	X54	Y54	Z54
169	0.700000	494.565369	1162.407715	-356.494202	386.096008	1159.859375	-352.898346	554.367371	1105.236938	-560.475647	315.232819	1100.878662	-558.056702	636.699097	1023.909912	-451.763916	639.085754	836.265320	-462.547119	627.096802	819.251221	-519.689636	629.411926	753.488770	-477.391571	606.166748	737.273499	-528.616150	608.843933	552.688599	-458.928680	483.181915	538.525330	-448.620575	612.818298	307.532623	-361.459045	614.817993	287.973145	-419.813629	611.213440	249.689972	-372.507019	600.214844	231.796494	-428.496979	605.236267	114.794624	-359.526581	521.897644	124.187775	-404.394165	560.271545	95.645813	-304.876251	528.694031	58.283081	-314.417969	592.865723	58.952431	-308.824585	517.317993	76.268379	-380.747192	618.213562	72.270515	-367.203064	530.421448	94.468224	-438.434143	536.946655	78.129387	-469.512177	586.187988	101.748978	-477.544891	632.283142	47.785633	-410.264496	537.268921	50.702065	-527.329407	591.941772	65.701996	-537.598694	648.213074	42.300091	-490.612000	582.598145	53.195618	-596.896179	244.220047	1012.935730	-446.548309	238.655060	830.811829	-445.540894	241.814941	813.614075	-503.794373	242.805252	746.212952	-458.701416	262.735565	730.860962	-514.578613	265.405457	564.149841	-442.874146	396.396606	553.650757	-443.908173	257.335602	300.205719	-355.143402	251.218719	279.202576	-403.681274	257.109589	245.019684	-368.301788	267.473694	225.668427	-420.417969	259.345276	115.449203	-363.342407	349.384827	123.767258	-400.832794	306.629547	94.970032	-303.381012	275.833008	58.307079	-303.561554	334.166718	56.533295	-308.038666	344.676392	55.170296	-530.795593	229.710342	41.496063	-493.025726	522.980134	1041.740788	-478.967978	350.554500	1038.598295	-477.223822	546.012924	545.606964	-453.774628	330.901031	558.900299	-443.391159	563.566956	119.491199	-381.960373	304.365051	119.608231	-382.087601
170	0.704167	494.563019	1162.405151	-356.521576	386.087982	1159.866577	-352.935333	554.362427	1105.228149	-560.515686	315.257599	1100.886841	-558.090332	636.660217	1023.878723	-451.800018	639.104553	836.253967	-462.580109	627.101624	819.250610	-519.715515	629.411499	753.477356	-477.418152	606.156799	737.273376	-528.664490	608.841736	552.685425	-458.979187	483.176392	538.510010	-448.653198	612.805115	307.509918	-361.470032	614.796875	287.963257	-419.817505	611.218872	249.681580	-372.532104	600.195313	231.794052	-428.511169	605.217224	114.831696	-359.479950	521.910156	124.177513	-404.416809	560.279846	95.662239	-304.888580	528.706116	58.303200	-314.408569	592.877014	58.959633	-308.830505	517.349426	76.270920	-380.720856	618.221802	72.270050	-367.210724	530.408325	94.509171	-438.437042	536.984314	78.128731	-469.511261	586.191589	101.750359	-477.560730	632.245972	47.783894	-410.247314	537.319153	50.687130	-527.384155	591.987793	65.786530	-537.573364	648.234009	42.274994	-490.589722	582.589294	53.196125	-596.913208	244.200241	1012.941650	-446.608093	238.655914	830.821289	-445.570923	241.824356	813.618164	-503.825958	242.742416	746.245544	-458.741547	262.731293	730.837036	-514.609558	265.404144	564.142822	-442.895599	396.431854	553.678833	-443.937988	257.308777	300.250061	-355.114838	251.201889	279.180267	-403.638489	257.130035	245.016861	-368.289429	267.485535	225.653076	-420.411621	259.352661	115.465721	-363.345184	349.399597	123.771584	-400.856079	306.640961	94.998886	-303.356201	275.830566	58.299751	-303.572479	334.176758	56.561390	-308.020294	344.678406	55.161797	-530.759216	229.718292	41.497719	-493.017426	522.978025	1041.744002	-479.007914	350.571995	1038.613711	-477.259117	546.009064	545.597717	-453.816193	330.917999	558.910828	-443.416794	563.563690	119.504604	-381.948380	304.376129	119.618652	-382.100632
171	0.708333	494.561432	1162.407593	-356.572235	386.090454	1159.874756	-352.992859	554.388367	1105.204956	-560.548401	315.265778	1100.880615	-558.134460	636.647888	1023.887512	-451.829498	639.087463	836.243286	-462.617523	627.102173	819.255615	-519.771118	629.433533	753.465149	-477.471283	606.159119	737.265076	-528.713623	608.843994	552.687378	-459.036743	483.165741	538.505005	-448.696716	612.771240	307.533600	-361.496124	614.810303	287.978485	-419.851868	611.213806	249.693069	-372.536407	600.192566	231.789856	-428.527039	605.197083	114.817902	-359.510071	521.865356	124.202866	-404.429688	560.285217	95.655128	-304.897980	528.708801	58.282612	-314.424194	592.857727	58.958694	-308.828857	517.327454	76.265991	-380.747620	618.188416	72.259521	-367.209839	530.384888	94.491081	-438.449951	536.995056	78.134781	-469.513306	586.172546	101.745514	-477.545502	632.230225	47.773289	-410.254669	537.291077	50.683895	-527.395935	591.995544	65.779221	-537.582520	648.214783	42.286503	-490.595398	582.587891	53.191002	-596.922668	244.226593	1012.974670	-446.665527	238.645294	830.840759	-445.626740	241.823837	813.627136	-503.859344	242.755341	746.261169	-458.781647	262.729004	730.859497	-514.643066	265.384949	564.163696	-442.918427	396.406799	553.678162	-443.960510	257.315918	300.253967	-355.132690	251.208344	279.215515	-403.678680	257.120544	245.031723	-368.309998	267.485657	225.679398	-420.409332	259.369507	115.484276	-363.357635	349.407135	123.779694	-400.854889	306.649872	94.953087	-303.383881	275.808838	58.323566	-303.585632	334.173676	56.535500	-308.043213	344.702850	55.161697	-530.709167	229.708527	41.476086	-493.017548	522.992479	1041.726603	-479.035861	350.574700	1038.608566	-477.295305	546.004868	545.596191	-453.866730	330.895874	558.920929	-443.439468	563.531219	119.510384	-381.969879	304.388321	119.631985	-382.106262
172	0.712500	494.547485	1162.419556	-356.591034	386.081329	1159.870850	-353.033661	554.382996	1105.195801	-560.584106	315.237762	1100.879639	-558.179993	636.633972	1023.885498	-451.856171	639.082153	836.239014	-462.653564	627.084473	819.241882	-519.787720	629.448059	753.472107	-477.512054	606.161621	737.244080	-528.739502	608.854370	552.677490	-459.055939	483.162537	538.506226	-448.745392	612.812073	307.550537	-361.540131	614.831360	287.975494	-419.874695	611.224915	249.693375	-372.550293	600.195557	231.789398	-428.546112	605.205383	114.828667	-359.503357	521.887329	124.165573	-404.411499	560.288757	95.670456	-304.892059	528.688965	58.331379	-314.416748	592.885315	58.975670	-308.833221	517.310974	76.291420	-380.702759	618.215881	72.250954	-367.212738	530.370056	94.478859	-438.467712	536.950989	78.117615	-469.527954	586.167969	101.765472	-477.544647	632.202759	47.791435	-410.254730	537.317932	50.704239	-527.408447	592.001465	65.770264	-537.598572	648.209229	42.273285	-490.607178	582.603027	53.195999	-596.920166	244.233368	1012.991394	-446.717346	238.652130	830.815796	-445.677246	241.842804	813.624756	-503.912109	242.753021	746.285217	-458.848236	262.756317	730.820557	-514.675110	265.384766	564.138306	-442.952087	396.408203	553.656250	-443.964966	257.277802	300.275055	-355.137299	251.215805	279.233459	-403.656891	257.115845	245.047836	-368.320709	267.480164	225.672592	-420.423523	259.348175	115.461548	-363.361389	349.372925	123.770554	-400.847870	306.635223	95.010277	-303.357574	275.809814	58.336872	-303.574524	334.149323	56.543652	-308.016663	344.656097	55.142159	-530.738159	229.714478	41.490921	-493.017151	522.977724	1041.715117	-479.066290	350.544985	1038.603001	-477.332833	546.008453	545.591858	-453.900665	330.896484	558.897278	-443.458527	563.546356	119.497120	-381.957428	304.360550	119.616051	-382.104630
